<mxfile host="app.diagrams.net" modified="2022-01-22T20:19:19.013Z" agent="5.0 (Windows NT 10.0; Win64; x64) AppleWebKit/537.36 (KHTML, like Gecko) Chrome/97.0.4692.99 Safari/537.36" etag="tc5atx6uaaJdqMVij1I6" version="16.4.5" type="github">
  <diagram id="R2lEEEUBdFMjLlhIrx00" name="Page-1">
    <mxGraphModel dx="2981" dy="911" grid="1" gridSize="10" guides="1" tooltips="1" connect="1" arrows="1" fold="1" page="1" pageScale="1" pageWidth="850" pageHeight="1100" math="0" shadow="0" extFonts="Permanent Marker^https://fonts.googleapis.com/css?family=Permanent+Marker">
      <root>
        <mxCell id="0" />
        <mxCell id="1" parent="0" />
        <mxCell id="Yo_N-d74N5IcMyuMn0g--31" value="merchandises" style="shape=table;startSize=30;container=1;collapsible=1;childLayout=tableLayout;fixedRows=1;rowLines=0;fontStyle=1;align=center;resizeLast=1;rounded=1;shadow=0;sketch=1;fontFamily=Comic Sans MS;fontSize=20;" vertex="1" parent="1">
          <mxGeometry x="200" y="30" width="570" height="210" as="geometry" />
        </mxCell>
        <mxCell id="Yo_N-d74N5IcMyuMn0g--69" style="shape=tableRow;horizontal=0;startSize=0;swimlaneHead=0;swimlaneBody=0;fillColor=none;collapsible=0;dropTarget=0;points=[[0,0.5],[1,0.5]];portConstraint=eastwest;top=0;left=0;right=0;bottom=1;rounded=1;shadow=0;sketch=1;fontFamily=Comic Sans MS;fontSize=20;fontStyle=0" vertex="1" parent="Yo_N-d74N5IcMyuMn0g--31">
          <mxGeometry y="30" width="570" height="30" as="geometry" />
        </mxCell>
        <mxCell id="Yo_N-d74N5IcMyuMn0g--70" style="shape=partialRectangle;connectable=0;fillColor=none;top=0;left=0;bottom=0;right=0;fontStyle=0;overflow=hidden;rounded=1;shadow=0;sketch=1;fontFamily=Comic Sans MS;fontSize=20;" vertex="1" parent="Yo_N-d74N5IcMyuMn0g--69">
          <mxGeometry width="30" height="30" as="geometry">
            <mxRectangle width="30" height="30" as="alternateBounds" />
          </mxGeometry>
        </mxCell>
        <mxCell id="Yo_N-d74N5IcMyuMn0g--71" value="sort" style="shape=partialRectangle;connectable=0;fillColor=none;top=0;left=0;bottom=0;right=0;align=left;spacingLeft=6;fontStyle=0;overflow=hidden;rounded=1;shadow=0;sketch=1;fontFamily=Comic Sans MS;fontSize=20;" vertex="1" parent="Yo_N-d74N5IcMyuMn0g--69">
          <mxGeometry x="30" width="170" height="30" as="geometry">
            <mxRectangle width="170" height="30" as="alternateBounds" />
          </mxGeometry>
        </mxCell>
        <mxCell id="Yo_N-d74N5IcMyuMn0g--72" style="shape=partialRectangle;connectable=0;fillColor=none;top=0;left=0;bottom=0;right=0;align=left;spacingLeft=6;fontStyle=0;overflow=hidden;rounded=1;shadow=0;sketch=1;fontFamily=Comic Sans MS;fontSize=20;" vertex="1" parent="Yo_N-d74N5IcMyuMn0g--69">
          <mxGeometry x="200" width="370" height="30" as="geometry">
            <mxRectangle width="370" height="30" as="alternateBounds" />
          </mxGeometry>
        </mxCell>
        <mxCell id="Yo_N-d74N5IcMyuMn0g--66" style="shape=tableRow;horizontal=0;startSize=0;swimlaneHead=0;swimlaneBody=0;fillColor=none;collapsible=0;dropTarget=0;points=[[0,0.5],[1,0.5]];portConstraint=eastwest;top=0;left=0;right=0;bottom=1;rounded=1;shadow=0;sketch=1;fontFamily=Comic Sans MS;fontSize=20;fontStyle=0" vertex="1" parent="Yo_N-d74N5IcMyuMn0g--31">
          <mxGeometry y="60" width="570" height="30" as="geometry" />
        </mxCell>
        <mxCell id="Yo_N-d74N5IcMyuMn0g--67" style="shape=partialRectangle;connectable=0;fillColor=none;top=0;left=0;bottom=0;right=0;fontStyle=0;overflow=hidden;rounded=1;shadow=0;sketch=1;fontFamily=Comic Sans MS;fontSize=20;" vertex="1" parent="Yo_N-d74N5IcMyuMn0g--66">
          <mxGeometry width="30" height="30" as="geometry">
            <mxRectangle width="30" height="30" as="alternateBounds" />
          </mxGeometry>
        </mxCell>
        <mxCell id="Yo_N-d74N5IcMyuMn0g--68" value="mauefacturer" style="shape=partialRectangle;connectable=0;fillColor=none;top=0;left=0;bottom=0;right=0;align=left;spacingLeft=6;fontStyle=0;overflow=hidden;rounded=1;shadow=0;sketch=1;fontFamily=Comic Sans MS;fontSize=20;" vertex="1" parent="Yo_N-d74N5IcMyuMn0g--66">
          <mxGeometry x="30" width="170" height="30" as="geometry">
            <mxRectangle width="170" height="30" as="alternateBounds" />
          </mxGeometry>
        </mxCell>
        <mxCell id="Yo_N-d74N5IcMyuMn0g--73" style="shape=partialRectangle;connectable=0;fillColor=none;top=0;left=0;bottom=0;right=0;align=left;spacingLeft=6;fontStyle=0;overflow=hidden;rounded=1;shadow=0;sketch=1;fontFamily=Comic Sans MS;fontSize=20;" vertex="1" parent="Yo_N-d74N5IcMyuMn0g--66">
          <mxGeometry x="200" width="370" height="30" as="geometry">
            <mxRectangle width="370" height="30" as="alternateBounds" />
          </mxGeometry>
        </mxCell>
        <mxCell id="Yo_N-d74N5IcMyuMn0g--63" style="shape=tableRow;horizontal=0;startSize=0;swimlaneHead=0;swimlaneBody=0;fillColor=none;collapsible=0;dropTarget=0;points=[[0,0.5],[1,0.5]];portConstraint=eastwest;top=0;left=0;right=0;bottom=1;rounded=1;shadow=0;sketch=1;fontFamily=Comic Sans MS;fontSize=20;fontStyle=0" vertex="1" parent="Yo_N-d74N5IcMyuMn0g--31">
          <mxGeometry y="90" width="570" height="30" as="geometry" />
        </mxCell>
        <mxCell id="Yo_N-d74N5IcMyuMn0g--64" style="shape=partialRectangle;connectable=0;fillColor=none;top=0;left=0;bottom=0;right=0;fontStyle=0;overflow=hidden;rounded=1;shadow=0;sketch=1;fontFamily=Comic Sans MS;fontSize=20;" vertex="1" parent="Yo_N-d74N5IcMyuMn0g--63">
          <mxGeometry width="30" height="30" as="geometry">
            <mxRectangle width="30" height="30" as="alternateBounds" />
          </mxGeometry>
        </mxCell>
        <mxCell id="Yo_N-d74N5IcMyuMn0g--65" value="size" style="shape=partialRectangle;connectable=0;fillColor=none;top=0;left=0;bottom=0;right=0;align=left;spacingLeft=6;fontStyle=0;overflow=hidden;rounded=1;shadow=0;sketch=1;fontFamily=Comic Sans MS;fontSize=20;" vertex="1" parent="Yo_N-d74N5IcMyuMn0g--63">
          <mxGeometry x="30" width="170" height="30" as="geometry">
            <mxRectangle width="170" height="30" as="alternateBounds" />
          </mxGeometry>
        </mxCell>
        <mxCell id="Yo_N-d74N5IcMyuMn0g--74" style="shape=partialRectangle;connectable=0;fillColor=none;top=0;left=0;bottom=0;right=0;align=left;spacingLeft=6;fontStyle=0;overflow=hidden;rounded=1;shadow=0;sketch=1;fontFamily=Comic Sans MS;fontSize=20;" vertex="1" parent="Yo_N-d74N5IcMyuMn0g--63">
          <mxGeometry x="200" width="370" height="30" as="geometry">
            <mxRectangle width="370" height="30" as="alternateBounds" />
          </mxGeometry>
        </mxCell>
        <mxCell id="Yo_N-d74N5IcMyuMn0g--32" value="" style="shape=tableRow;horizontal=0;startSize=0;swimlaneHead=0;swimlaneBody=0;fillColor=none;collapsible=0;dropTarget=0;points=[[0,0.5],[1,0.5]];portConstraint=eastwest;top=0;left=0;right=0;bottom=1;rounded=1;shadow=0;sketch=1;fontFamily=Comic Sans MS;fontSize=20;fontStyle=0" vertex="1" parent="Yo_N-d74N5IcMyuMn0g--31">
          <mxGeometry y="120" width="570" height="30" as="geometry" />
        </mxCell>
        <mxCell id="Yo_N-d74N5IcMyuMn0g--33" value="PK" style="shape=partialRectangle;connectable=0;fillColor=none;top=0;left=0;bottom=0;right=0;fontStyle=0;overflow=hidden;rounded=1;shadow=0;sketch=1;fontFamily=Comic Sans MS;fontSize=20;" vertex="1" parent="Yo_N-d74N5IcMyuMn0g--32">
          <mxGeometry width="30" height="30" as="geometry">
            <mxRectangle width="30" height="30" as="alternateBounds" />
          </mxGeometry>
        </mxCell>
        <mxCell id="Yo_N-d74N5IcMyuMn0g--34" value="name" style="shape=partialRectangle;connectable=0;fillColor=none;top=0;left=0;bottom=0;right=0;align=left;spacingLeft=6;fontStyle=0;overflow=hidden;rounded=1;shadow=0;sketch=1;fontFamily=Comic Sans MS;fontSize=20;" vertex="1" parent="Yo_N-d74N5IcMyuMn0g--32">
          <mxGeometry x="30" width="170" height="30" as="geometry">
            <mxRectangle width="170" height="30" as="alternateBounds" />
          </mxGeometry>
        </mxCell>
        <mxCell id="Yo_N-d74N5IcMyuMn0g--75" value="default: sort-mauefacturer-size" style="shape=partialRectangle;connectable=0;fillColor=none;top=0;left=0;bottom=0;right=0;align=left;spacingLeft=6;fontStyle=0;overflow=hidden;rounded=1;shadow=0;sketch=1;fontFamily=Comic Sans MS;fontSize=20;" vertex="1" parent="Yo_N-d74N5IcMyuMn0g--32">
          <mxGeometry x="200" width="370" height="30" as="geometry">
            <mxRectangle width="370" height="30" as="alternateBounds" />
          </mxGeometry>
        </mxCell>
        <mxCell id="Yo_N-d74N5IcMyuMn0g--76" style="shape=tableRow;horizontal=0;startSize=0;swimlaneHead=0;swimlaneBody=0;fillColor=none;collapsible=0;dropTarget=0;points=[[0,0.5],[1,0.5]];portConstraint=eastwest;top=0;left=0;right=0;bottom=1;rounded=1;shadow=0;sketch=1;fontFamily=Comic Sans MS;fontSize=20;fontStyle=0" vertex="1" parent="Yo_N-d74N5IcMyuMn0g--31">
          <mxGeometry y="150" width="570" height="30" as="geometry" />
        </mxCell>
        <mxCell id="Yo_N-d74N5IcMyuMn0g--77" style="shape=partialRectangle;connectable=0;fillColor=none;top=0;left=0;bottom=0;right=0;fontStyle=0;overflow=hidden;rounded=1;shadow=0;sketch=1;fontFamily=Comic Sans MS;fontSize=20;" vertex="1" parent="Yo_N-d74N5IcMyuMn0g--76">
          <mxGeometry width="30" height="30" as="geometry">
            <mxRectangle width="30" height="30" as="alternateBounds" />
          </mxGeometry>
        </mxCell>
        <mxCell id="Yo_N-d74N5IcMyuMn0g--78" value="selling_price" style="shape=partialRectangle;connectable=0;fillColor=none;top=0;left=0;bottom=0;right=0;align=left;spacingLeft=6;fontStyle=0;overflow=hidden;rounded=1;shadow=0;sketch=1;fontFamily=Comic Sans MS;fontSize=20;" vertex="1" parent="Yo_N-d74N5IcMyuMn0g--76">
          <mxGeometry x="30" width="170" height="30" as="geometry">
            <mxRectangle width="170" height="30" as="alternateBounds" />
          </mxGeometry>
        </mxCell>
        <mxCell id="Yo_N-d74N5IcMyuMn0g--79" style="shape=partialRectangle;connectable=0;fillColor=none;top=0;left=0;bottom=0;right=0;align=left;spacingLeft=6;fontStyle=0;overflow=hidden;rounded=1;shadow=0;sketch=1;fontFamily=Comic Sans MS;fontSize=20;" vertex="1" parent="Yo_N-d74N5IcMyuMn0g--76">
          <mxGeometry x="200" width="370" height="30" as="geometry">
            <mxRectangle width="370" height="30" as="alternateBounds" />
          </mxGeometry>
        </mxCell>
        <mxCell id="Yo_N-d74N5IcMyuMn0g--80" style="shape=tableRow;horizontal=0;startSize=0;swimlaneHead=0;swimlaneBody=0;fillColor=none;collapsible=0;dropTarget=0;points=[[0,0.5],[1,0.5]];portConstraint=eastwest;top=0;left=0;right=0;bottom=1;rounded=1;shadow=0;sketch=1;fontFamily=Comic Sans MS;fontSize=20;fontStyle=0" vertex="1" parent="Yo_N-d74N5IcMyuMn0g--31">
          <mxGeometry y="180" width="570" height="30" as="geometry" />
        </mxCell>
        <mxCell id="Yo_N-d74N5IcMyuMn0g--81" style="shape=partialRectangle;connectable=0;fillColor=none;top=0;left=0;bottom=0;right=0;fontStyle=0;overflow=hidden;rounded=1;shadow=0;sketch=1;fontFamily=Comic Sans MS;fontSize=20;" vertex="1" parent="Yo_N-d74N5IcMyuMn0g--80">
          <mxGeometry width="30" height="30" as="geometry">
            <mxRectangle width="30" height="30" as="alternateBounds" />
          </mxGeometry>
        </mxCell>
        <mxCell id="Yo_N-d74N5IcMyuMn0g--82" value="cost_price" style="shape=partialRectangle;connectable=0;fillColor=none;top=0;left=0;bottom=0;right=0;align=left;spacingLeft=6;fontStyle=0;overflow=hidden;rounded=1;shadow=0;sketch=1;fontFamily=Comic Sans MS;fontSize=20;" vertex="1" parent="Yo_N-d74N5IcMyuMn0g--80">
          <mxGeometry x="30" width="170" height="30" as="geometry">
            <mxRectangle width="170" height="30" as="alternateBounds" />
          </mxGeometry>
        </mxCell>
        <mxCell id="Yo_N-d74N5IcMyuMn0g--83" style="shape=partialRectangle;connectable=0;fillColor=none;top=0;left=0;bottom=0;right=0;align=left;spacingLeft=6;fontStyle=0;overflow=hidden;rounded=1;shadow=0;sketch=1;fontFamily=Comic Sans MS;fontSize=20;" vertex="1" parent="Yo_N-d74N5IcMyuMn0g--80">
          <mxGeometry x="200" width="370" height="30" as="geometry">
            <mxRectangle width="370" height="30" as="alternateBounds" />
          </mxGeometry>
        </mxCell>
        <mxCell id="Yo_N-d74N5IcMyuMn0g--130" value="stocks" style="shape=table;startSize=30;container=1;collapsible=1;childLayout=tableLayout;fixedRows=1;rowLines=0;fontStyle=1;align=center;resizeLast=1;rounded=1;shadow=0;sketch=1;fontFamily=Comic Sans MS;fontSize=20;" vertex="1" parent="1">
          <mxGeometry x="-410" y="70" width="450" height="150" as="geometry" />
        </mxCell>
        <mxCell id="Yo_N-d74N5IcMyuMn0g--161" style="shape=tableRow;horizontal=0;startSize=0;swimlaneHead=0;swimlaneBody=0;fillColor=none;collapsible=0;dropTarget=0;points=[[0,0.5],[1,0.5]];portConstraint=eastwest;top=0;left=0;right=0;bottom=1;rounded=1;shadow=0;sketch=1;fontFamily=Comic Sans MS;fontSize=20;fontStyle=0" vertex="1" parent="Yo_N-d74N5IcMyuMn0g--130">
          <mxGeometry y="30" width="450" height="30" as="geometry" />
        </mxCell>
        <mxCell id="Yo_N-d74N5IcMyuMn0g--162" value="PK, FK" style="shape=partialRectangle;connectable=0;fillColor=none;top=0;left=0;bottom=0;right=0;fontStyle=0;overflow=hidden;rounded=1;shadow=0;sketch=1;fontFamily=Comic Sans MS;fontSize=20;" vertex="1" parent="Yo_N-d74N5IcMyuMn0g--161">
          <mxGeometry width="70" height="30" as="geometry">
            <mxRectangle width="70" height="30" as="alternateBounds" />
          </mxGeometry>
        </mxCell>
        <mxCell id="Yo_N-d74N5IcMyuMn0g--163" value="name" style="shape=partialRectangle;connectable=0;fillColor=none;top=0;left=0;bottom=0;right=0;align=left;spacingLeft=6;fontStyle=0;overflow=hidden;rounded=1;shadow=0;sketch=1;fontFamily=Comic Sans MS;fontSize=20;" vertex="1" parent="Yo_N-d74N5IcMyuMn0g--161">
          <mxGeometry x="70" width="190" height="30" as="geometry">
            <mxRectangle width="190" height="30" as="alternateBounds" />
          </mxGeometry>
        </mxCell>
        <mxCell id="Yo_N-d74N5IcMyuMn0g--164" style="shape=partialRectangle;connectable=0;fillColor=none;top=0;left=0;bottom=0;right=0;align=left;spacingLeft=6;fontStyle=0;overflow=hidden;rounded=1;shadow=0;sketch=1;fontFamily=Comic Sans MS;fontSize=20;" vertex="1" parent="Yo_N-d74N5IcMyuMn0g--161">
          <mxGeometry x="260" width="190" height="30" as="geometry">
            <mxRectangle width="190" height="30" as="alternateBounds" />
          </mxGeometry>
        </mxCell>
        <mxCell id="Yo_N-d74N5IcMyuMn0g--158" style="shape=tableRow;horizontal=0;startSize=0;swimlaneHead=0;swimlaneBody=0;fillColor=none;collapsible=0;dropTarget=0;points=[[0,0.5],[1,0.5]];portConstraint=eastwest;top=0;left=0;right=0;bottom=1;rounded=1;shadow=0;sketch=1;fontFamily=Comic Sans MS;fontSize=20;fontStyle=0" vertex="1" parent="Yo_N-d74N5IcMyuMn0g--130">
          <mxGeometry y="60" width="450" height="30" as="geometry" />
        </mxCell>
        <mxCell id="Yo_N-d74N5IcMyuMn0g--159" value="PK" style="shape=partialRectangle;connectable=0;fillColor=none;top=0;left=0;bottom=0;right=0;fontStyle=0;overflow=hidden;rounded=1;shadow=0;sketch=1;fontFamily=Comic Sans MS;fontSize=20;" vertex="1" parent="Yo_N-d74N5IcMyuMn0g--158">
          <mxGeometry width="70" height="30" as="geometry">
            <mxRectangle width="70" height="30" as="alternateBounds" />
          </mxGeometry>
        </mxCell>
        <mxCell id="Yo_N-d74N5IcMyuMn0g--160" value="warehousing_date" style="shape=partialRectangle;connectable=0;fillColor=none;top=0;left=0;bottom=0;right=0;align=left;spacingLeft=6;fontStyle=0;overflow=hidden;rounded=1;shadow=0;sketch=1;fontFamily=Comic Sans MS;fontSize=20;" vertex="1" parent="Yo_N-d74N5IcMyuMn0g--158">
          <mxGeometry x="70" width="190" height="30" as="geometry">
            <mxRectangle width="190" height="30" as="alternateBounds" />
          </mxGeometry>
        </mxCell>
        <mxCell id="Yo_N-d74N5IcMyuMn0g--165" style="shape=partialRectangle;connectable=0;fillColor=none;top=0;left=0;bottom=0;right=0;align=left;spacingLeft=6;fontStyle=0;overflow=hidden;rounded=1;shadow=0;sketch=1;fontFamily=Comic Sans MS;fontSize=20;" vertex="1" parent="Yo_N-d74N5IcMyuMn0g--158">
          <mxGeometry x="260" width="190" height="30" as="geometry">
            <mxRectangle width="190" height="30" as="alternateBounds" />
          </mxGeometry>
        </mxCell>
        <mxCell id="Yo_N-d74N5IcMyuMn0g--155" style="shape=tableRow;horizontal=0;startSize=0;swimlaneHead=0;swimlaneBody=0;fillColor=none;collapsible=0;dropTarget=0;points=[[0,0.5],[1,0.5]];portConstraint=eastwest;top=0;left=0;right=0;bottom=1;rounded=1;shadow=0;sketch=1;fontFamily=Comic Sans MS;fontSize=20;fontStyle=0" vertex="1" parent="Yo_N-d74N5IcMyuMn0g--130">
          <mxGeometry y="90" width="450" height="30" as="geometry" />
        </mxCell>
        <mxCell id="Yo_N-d74N5IcMyuMn0g--156" style="shape=partialRectangle;connectable=0;fillColor=none;top=0;left=0;bottom=0;right=0;fontStyle=0;overflow=hidden;rounded=1;shadow=0;sketch=1;fontFamily=Comic Sans MS;fontSize=20;" vertex="1" parent="Yo_N-d74N5IcMyuMn0g--155">
          <mxGeometry width="70" height="30" as="geometry">
            <mxRectangle width="70" height="30" as="alternateBounds" />
          </mxGeometry>
        </mxCell>
        <mxCell id="Yo_N-d74N5IcMyuMn0g--157" value="expiration_date" style="shape=partialRectangle;connectable=0;fillColor=none;top=0;left=0;bottom=0;right=0;align=left;spacingLeft=6;fontStyle=0;overflow=hidden;rounded=1;shadow=0;sketch=1;fontFamily=Comic Sans MS;fontSize=20;" vertex="1" parent="Yo_N-d74N5IcMyuMn0g--155">
          <mxGeometry x="70" width="190" height="30" as="geometry">
            <mxRectangle width="190" height="30" as="alternateBounds" />
          </mxGeometry>
        </mxCell>
        <mxCell id="Yo_N-d74N5IcMyuMn0g--166" style="shape=partialRectangle;connectable=0;fillColor=none;top=0;left=0;bottom=0;right=0;align=left;spacingLeft=6;fontStyle=0;overflow=hidden;rounded=1;shadow=0;sketch=1;fontFamily=Comic Sans MS;fontSize=20;" vertex="1" parent="Yo_N-d74N5IcMyuMn0g--155">
          <mxGeometry x="260" width="190" height="30" as="geometry">
            <mxRectangle width="190" height="30" as="alternateBounds" />
          </mxGeometry>
        </mxCell>
        <mxCell id="Yo_N-d74N5IcMyuMn0g--152" style="shape=tableRow;horizontal=0;startSize=0;swimlaneHead=0;swimlaneBody=0;fillColor=none;collapsible=0;dropTarget=0;points=[[0,0.5],[1,0.5]];portConstraint=eastwest;top=0;left=0;right=0;bottom=1;rounded=1;shadow=0;sketch=1;fontFamily=Comic Sans MS;fontSize=20;fontStyle=0" vertex="1" parent="Yo_N-d74N5IcMyuMn0g--130">
          <mxGeometry y="120" width="450" height="30" as="geometry" />
        </mxCell>
        <mxCell id="Yo_N-d74N5IcMyuMn0g--153" style="shape=partialRectangle;connectable=0;fillColor=none;top=0;left=0;bottom=0;right=0;fontStyle=0;overflow=hidden;rounded=1;shadow=0;sketch=1;fontFamily=Comic Sans MS;fontSize=20;" vertex="1" parent="Yo_N-d74N5IcMyuMn0g--152">
          <mxGeometry width="70" height="30" as="geometry">
            <mxRectangle width="70" height="30" as="alternateBounds" />
          </mxGeometry>
        </mxCell>
        <mxCell id="Yo_N-d74N5IcMyuMn0g--154" value="quantity" style="shape=partialRectangle;connectable=0;fillColor=none;top=0;left=0;bottom=0;right=0;align=left;spacingLeft=6;fontStyle=0;overflow=hidden;rounded=1;shadow=0;sketch=1;fontFamily=Comic Sans MS;fontSize=20;" vertex="1" parent="Yo_N-d74N5IcMyuMn0g--152">
          <mxGeometry x="70" width="190" height="30" as="geometry">
            <mxRectangle width="190" height="30" as="alternateBounds" />
          </mxGeometry>
        </mxCell>
        <mxCell id="Yo_N-d74N5IcMyuMn0g--167" style="shape=partialRectangle;connectable=0;fillColor=none;top=0;left=0;bottom=0;right=0;align=left;spacingLeft=6;fontStyle=0;overflow=hidden;rounded=1;shadow=0;sketch=1;fontFamily=Comic Sans MS;fontSize=20;" vertex="1" parent="Yo_N-d74N5IcMyuMn0g--152">
          <mxGeometry x="260" width="190" height="30" as="geometry">
            <mxRectangle width="190" height="30" as="alternateBounds" />
          </mxGeometry>
        </mxCell>
        <mxCell id="Yo_N-d74N5IcMyuMn0g--169" value="" style="edgeStyle=entityRelationEdgeStyle;fontSize=15;html=1;endArrow=ERoneToMany;rounded=0;fontFamily=Comic Sans MS;exitX=0;exitY=0.5;exitDx=0;exitDy=0;strokeWidth=2;entryX=1;entryY=0.5;entryDx=0;entryDy=0;" edge="1" parent="1" source="Yo_N-d74N5IcMyuMn0g--32" target="Yo_N-d74N5IcMyuMn0g--161">
          <mxGeometry width="100" height="100" relative="1" as="geometry">
            <mxPoint x="30" y="170" as="sourcePoint" />
            <mxPoint x="190" y="505" as="targetPoint" />
          </mxGeometry>
        </mxCell>
        <mxCell id="Yo_N-d74N5IcMyuMn0g--203" value="salse" style="shape=table;startSize=30;container=1;collapsible=1;childLayout=tableLayout;fixedRows=1;rowLines=0;fontStyle=1;align=center;resizeLast=1;rounded=1;shadow=0;sketch=1;fontFamily=Comic Sans MS;fontSize=20;" vertex="1" parent="1">
          <mxGeometry x="-530" y="350" width="450" height="150" as="geometry" />
        </mxCell>
        <mxCell id="Yo_N-d74N5IcMyuMn0g--204" style="shape=tableRow;horizontal=0;startSize=0;swimlaneHead=0;swimlaneBody=0;fillColor=none;collapsible=0;dropTarget=0;points=[[0,0.5],[1,0.5]];portConstraint=eastwest;top=0;left=0;right=0;bottom=1;rounded=1;shadow=0;sketch=1;fontFamily=Comic Sans MS;fontSize=20;fontStyle=0" vertex="1" parent="Yo_N-d74N5IcMyuMn0g--203">
          <mxGeometry y="30" width="450" height="30" as="geometry" />
        </mxCell>
        <mxCell id="Yo_N-d74N5IcMyuMn0g--205" value="PK, FK" style="shape=partialRectangle;connectable=0;fillColor=none;top=0;left=0;bottom=0;right=0;fontStyle=0;overflow=hidden;rounded=1;shadow=0;sketch=1;fontFamily=Comic Sans MS;fontSize=20;" vertex="1" parent="Yo_N-d74N5IcMyuMn0g--204">
          <mxGeometry width="70" height="30" as="geometry">
            <mxRectangle width="70" height="30" as="alternateBounds" />
          </mxGeometry>
        </mxCell>
        <mxCell id="Yo_N-d74N5IcMyuMn0g--206" value="name" style="shape=partialRectangle;connectable=0;fillColor=none;top=0;left=0;bottom=0;right=0;align=left;spacingLeft=6;fontStyle=0;overflow=hidden;rounded=1;shadow=0;sketch=1;fontFamily=Comic Sans MS;fontSize=20;" vertex="1" parent="Yo_N-d74N5IcMyuMn0g--204">
          <mxGeometry x="70" width="110" height="30" as="geometry">
            <mxRectangle width="110" height="30" as="alternateBounds" />
          </mxGeometry>
        </mxCell>
        <mxCell id="Yo_N-d74N5IcMyuMn0g--207" style="shape=partialRectangle;connectable=0;fillColor=none;top=0;left=0;bottom=0;right=0;align=left;spacingLeft=6;fontStyle=0;overflow=hidden;rounded=1;shadow=0;sketch=1;fontFamily=Comic Sans MS;fontSize=20;" vertex="1" parent="Yo_N-d74N5IcMyuMn0g--204">
          <mxGeometry x="180" width="270" height="30" as="geometry">
            <mxRectangle width="270" height="30" as="alternateBounds" />
          </mxGeometry>
        </mxCell>
        <mxCell id="Yo_N-d74N5IcMyuMn0g--208" style="shape=tableRow;horizontal=0;startSize=0;swimlaneHead=0;swimlaneBody=0;fillColor=none;collapsible=0;dropTarget=0;points=[[0,0.5],[1,0.5]];portConstraint=eastwest;top=0;left=0;right=0;bottom=1;rounded=1;shadow=0;sketch=1;fontFamily=Comic Sans MS;fontSize=20;fontStyle=0" vertex="1" parent="Yo_N-d74N5IcMyuMn0g--203">
          <mxGeometry y="60" width="450" height="30" as="geometry" />
        </mxCell>
        <mxCell id="Yo_N-d74N5IcMyuMn0g--209" value="PK" style="shape=partialRectangle;connectable=0;fillColor=none;top=0;left=0;bottom=0;right=0;fontStyle=0;overflow=hidden;rounded=1;shadow=0;sketch=1;fontFamily=Comic Sans MS;fontSize=20;" vertex="1" parent="Yo_N-d74N5IcMyuMn0g--208">
          <mxGeometry width="70" height="30" as="geometry">
            <mxRectangle width="70" height="30" as="alternateBounds" />
          </mxGeometry>
        </mxCell>
        <mxCell id="Yo_N-d74N5IcMyuMn0g--210" value="sale_date" style="shape=partialRectangle;connectable=0;fillColor=none;top=0;left=0;bottom=0;right=0;align=left;spacingLeft=6;fontStyle=0;overflow=hidden;rounded=1;shadow=0;sketch=1;fontFamily=Comic Sans MS;fontSize=20;" vertex="1" parent="Yo_N-d74N5IcMyuMn0g--208">
          <mxGeometry x="70" width="110" height="30" as="geometry">
            <mxRectangle width="110" height="30" as="alternateBounds" />
          </mxGeometry>
        </mxCell>
        <mxCell id="Yo_N-d74N5IcMyuMn0g--211" style="shape=partialRectangle;connectable=0;fillColor=none;top=0;left=0;bottom=0;right=0;align=left;spacingLeft=6;fontStyle=0;overflow=hidden;rounded=1;shadow=0;sketch=1;fontFamily=Comic Sans MS;fontSize=20;" vertex="1" parent="Yo_N-d74N5IcMyuMn0g--208">
          <mxGeometry x="180" width="270" height="30" as="geometry">
            <mxRectangle width="270" height="30" as="alternateBounds" />
          </mxGeometry>
        </mxCell>
        <mxCell id="Yo_N-d74N5IcMyuMn0g--212" style="shape=tableRow;horizontal=0;startSize=0;swimlaneHead=0;swimlaneBody=0;fillColor=none;collapsible=0;dropTarget=0;points=[[0,0.5],[1,0.5]];portConstraint=eastwest;top=0;left=0;right=0;bottom=1;rounded=1;shadow=0;sketch=1;fontFamily=Comic Sans MS;fontSize=20;fontStyle=0" vertex="1" parent="Yo_N-d74N5IcMyuMn0g--203">
          <mxGeometry y="90" width="450" height="60" as="geometry" />
        </mxCell>
        <mxCell id="Yo_N-d74N5IcMyuMn0g--213" style="shape=partialRectangle;connectable=0;fillColor=none;top=0;left=0;bottom=0;right=0;fontStyle=0;overflow=hidden;rounded=1;shadow=0;sketch=1;fontFamily=Comic Sans MS;fontSize=20;" vertex="1" parent="Yo_N-d74N5IcMyuMn0g--212">
          <mxGeometry width="70" height="60" as="geometry">
            <mxRectangle width="70" height="60" as="alternateBounds" />
          </mxGeometry>
        </mxCell>
        <mxCell id="Yo_N-d74N5IcMyuMn0g--214" value="quantity" style="shape=partialRectangle;connectable=0;fillColor=none;top=0;left=0;bottom=0;right=0;align=left;spacingLeft=6;fontStyle=0;overflow=hidden;rounded=1;shadow=0;sketch=1;fontFamily=Comic Sans MS;fontSize=20;" vertex="1" parent="Yo_N-d74N5IcMyuMn0g--212">
          <mxGeometry x="70" width="110" height="60" as="geometry">
            <mxRectangle width="110" height="60" as="alternateBounds" />
          </mxGeometry>
        </mxCell>
        <mxCell id="Yo_N-d74N5IcMyuMn0g--215" value="재고량보다 적어야함&#xa;입고순으로 제거" style="shape=partialRectangle;connectable=0;fillColor=none;top=0;left=0;bottom=0;right=0;align=left;spacingLeft=6;fontStyle=0;overflow=hidden;rounded=1;shadow=0;sketch=1;fontFamily=Comic Sans MS;fontSize=20;" vertex="1" parent="Yo_N-d74N5IcMyuMn0g--212">
          <mxGeometry x="180" width="270" height="60" as="geometry">
            <mxRectangle width="270" height="60" as="alternateBounds" />
          </mxGeometry>
        </mxCell>
        <mxCell id="Yo_N-d74N5IcMyuMn0g--220" value="" style="edgeStyle=entityRelationEdgeStyle;fontSize=15;html=1;endArrow=ERoneToMany;rounded=0;fontFamily=Comic Sans MS;strokeWidth=2;exitX=0;exitY=0.5;exitDx=0;exitDy=0;entryX=1;entryY=0.5;entryDx=0;entryDy=0;" edge="1" parent="1" source="Yo_N-d74N5IcMyuMn0g--32" target="Yo_N-d74N5IcMyuMn0g--204">
          <mxGeometry width="100" height="100" relative="1" as="geometry">
            <mxPoint x="200" y="165" as="sourcePoint" />
            <mxPoint x="-210" y="570" as="targetPoint" />
          </mxGeometry>
        </mxCell>
      </root>
    </mxGraphModel>
  </diagram>
</mxfile>
